<?xml version="1.0" encoding="UTF-8" standalone="no"?>
<!-- Created with Inkscape (http://www.inkscape.org/) -->
<svg
   xmlns:dc="http://purl.org/dc/elements/1.1/"
   xmlns:cc="http://creativecommons.org/ns#"
   xmlns:rdf="http://www.w3.org/1999/02/22-rdf-syntax-ns#"
   xmlns:svg="http://www.w3.org/2000/svg"
   xmlns="http://www.w3.org/2000/svg"
   xmlns:sodipodi="http://sodipodi.sourceforge.net/DTD/sodipodi-0.dtd"
   xmlns:inkscape="http://www.inkscape.org/namespaces/inkscape"
   width="744.09448819"
   height="1052.3622047"
   id="svg2"
   sodipodi:version="0.32"
   inkscape:version="0.46"
   sodipodi:docname="pg.svg"
   inkscape:output_extension="org.inkscape.output.svg.inkscape"
   inkscape:export-filename="/home/chris/development/ANW/anw/trunk/Packages/anw/gui/media/nt.png"
   inkscape:export-xdpi="83.834473"
   inkscape:export-ydpi="83.834473">
  <defs
     id="defs4">
    <inkscape:perspective
       sodipodi:type="inkscape:persp3d"
       inkscape:vp_x="0 : 526.18109 : 1"
       inkscape:vp_y="0 : 1000 : 0"
       inkscape:vp_z="744.09448 : 526.18109 : 1"
       inkscape:persp3d-origin="372.04724 : 350.78739 : 1"
       id="perspective10" />
  </defs>
  <sodipodi:namedview
     id="base"
     pagecolor="#ffffff"
     bordercolor="#666666"
     borderopacity="1.0"
     gridtolerance="10000"
     guidetolerance="10"
     objecttolerance="10"
     inkscape:pageopacity="0.0"
     inkscape:pageshadow="2"
     inkscape:zoom="2.56"
     inkscape:cx="215.29435"
     inkscape:cy="642.29258"
     inkscape:document-units="px"
     inkscape:current-layer="layer1"
     showgrid="true"
     inkscape:window-width="1013"
     inkscape:window-height="1119"
     inkscape:window-x="0"
     inkscape:window-y="24">
    <inkscape:grid
       type="xygrid"
       id="grid2766" />
  </sodipodi:namedview>
  <metadata
     id="metadata7">
    <rdf:RDF>
      <cc:Work
         rdf:about="">
        <dc:format>image/svg+xml</dc:format>
        <dc:type
           rdf:resource="http://purl.org/dc/dcmitype/StillImage" />
      </cc:Work>
    </rdf:RDF>
  </metadata>
  <g
     inkscape:label="Layer 1"
     inkscape:groupmode="layer"
     id="layer1">
    <g
       id="g4082"
       transform="matrix(0.1584197,0,0,0.1734758,144.1745,229.50998)">
      <path
         inkscape:export-ydpi="72"
         inkscape:export-xdpi="72"
         transform="matrix(3.4070521,0,0,3.1555948,-1214.4676,-637.60649)"
         d="M 500,360 L 463.58775,354.91523 L 451.06495,389.48236 L 437.26236,355.40605 L 401.06495,361.84454 L 423.67461,332.85299 L 400,304.72437 L 436.41225,309.80913 L 448.93505,275.24201 L 462.73764,309.31832 L 498.93505,302.87982 L 476.32539,331.87137 L 500,360 z"
         inkscape:randomized="0"
         inkscape:rounded="0"
         inkscape:flatsided="false"
         sodipodi:arg2="1.0285557"
         sodipodi:arg1="0.50495695"
         sodipodi:r2="26.329966"
         sodipodi:r1="57.130104"
         sodipodi:cy="332.36218"
         sodipodi:cx="450"
         sodipodi:sides="6"
         id="path4056"
         style="opacity:0.9;fill:#000000;stroke:#000000;stroke-width:0;stroke-miterlimit:4;stroke-dasharray:none;stroke-opacity:1"
         sodipodi:type="star" />
    </g>
    <path
       sodipodi:type="star"
       style="opacity:0.9;fill:#cccccc;stroke:#000000;stroke-width:0;stroke-miterlimit:4;stroke-dasharray:none;stroke-opacity:1"
       id="path4080"
       sodipodi:sides="6"
       sodipodi:cx="450"
       sodipodi:cy="332.36218"
       sodipodi:r1="57.130104"
       sodipodi:r2="26.329966"
       sodipodi:arg1="0.50495695"
       sodipodi:arg2="1.0285557"
       inkscape:flatsided="false"
       inkscape:rounded="0"
       inkscape:randomized="0"
       d="M 500,360 L 463.58775,354.91523 L 451.06495,389.48236 L 437.26236,355.40605 L 401.06495,361.84454 L 423.67461,332.85299 L 400,304.72437 L 436.41225,309.80913 L 448.93505,275.24201 L 462.73764,309.31832 L 498.93505,302.87982 L 476.32539,331.87137 L 500,360 z"
       transform="matrix(0.2613918,0,0,0.2651087,77.121538,212.40731)"
       inkscape:export-xdpi="72"
       inkscape:export-ydpi="72" />
    <g
       id="g4130"
       transform="matrix(0.9999973,2.3238177e-3,-2.3238177e-3,0.9999973,-189.13363,-30.916903)">
      <rect
         y="362.36218"
         x="365"
         height="205"
         width="40"
         id="rect4128"
         style="opacity:0.9;fill:#000000;stroke:#000000;stroke-width:0;stroke-miterlimit:4;stroke-dasharray:none;stroke-opacity:1" />
      <rect
         y="372.36218"
         x="375"
         height="185"
         width="20"
         id="rect4126"
         style="opacity:0.9;fill:#cccccc;stroke:#000000;stroke-width:0;stroke-miterlimit:4;stroke-dasharray:none;stroke-opacity:1" />
    </g>
    <g
       id="g2390"
       transform="matrix(0.1584197,0,0,0.1734758,202.24509,229.17422)">
      <path
         inkscape:export-ydpi="72"
         inkscape:export-xdpi="72"
         transform="matrix(3.4070521,0,0,3.1555948,-1214.4676,-637.60649)"
         d="M 500,360 L 463.58775,354.91523 L 451.06495,389.48236 L 437.26236,355.40605 L 401.06495,361.84454 L 423.67461,332.85299 L 400,304.72437 L 436.41225,309.80913 L 448.93505,275.24201 L 462.73764,309.31832 L 498.93505,302.87982 L 476.32539,331.87137 L 500,360 z"
         inkscape:randomized="0"
         inkscape:rounded="0"
         inkscape:flatsided="false"
         sodipodi:arg2="1.0285557"
         sodipodi:arg1="0.50495695"
         sodipodi:r2="26.329966"
         sodipodi:r1="57.130104"
         sodipodi:cy="332.36218"
         sodipodi:cx="450"
         sodipodi:sides="6"
         id="path2392"
         style="opacity:0.9;fill:#000000;stroke:#000000;stroke-width:0;stroke-miterlimit:4;stroke-dasharray:none;stroke-opacity:1"
         sodipodi:type="star" />
    </g>
    <path
       sodipodi:type="star"
       style="opacity:0.9;fill:#cccccc;stroke:#000000;stroke-width:0;stroke-miterlimit:4;stroke-dasharray:none;stroke-opacity:1"
       id="path2394"
       sodipodi:sides="6"
       sodipodi:cx="450"
       sodipodi:cy="332.36218"
       sodipodi:r1="57.130104"
       sodipodi:r2="26.329966"
       sodipodi:arg1="0.50495695"
       sodipodi:arg2="1.0285557"
       inkscape:flatsided="false"
       inkscape:rounded="0"
       inkscape:randomized="0"
       d="M 500,360 L 463.58775,354.91523 L 451.06495,389.48236 L 437.26236,355.40605 L 401.06495,361.84454 L 423.67461,332.85299 L 400,304.72437 L 436.41225,309.80913 L 448.93505,275.24201 L 462.73764,309.31832 L 498.93505,302.87982 L 476.32539,331.87137 L 500,360 z"
       transform="matrix(0.2613918,0,0,0.2651087,135.19213,212.07155)"
       inkscape:export-xdpi="72"
       inkscape:export-ydpi="72" />
    <g
       id="g2396"
       transform="matrix(0.9999973,2.3238177e-3,-2.3238177e-3,0.9999973,-131.06304,-31.252659)">
      <rect
         y="362.36218"
         x="365"
         height="205"
         width="40"
         id="rect2398"
         style="opacity:0.9;fill:#000000;stroke:#000000;stroke-width:0;stroke-miterlimit:4;stroke-dasharray:none;stroke-opacity:1" />
      <rect
         y="372.36218"
         x="375"
         height="185"
         width="20"
         id="rect2400"
         style="opacity:0.9;fill:#cccccc;stroke:#000000;stroke-width:0;stroke-miterlimit:4;stroke-dasharray:none;stroke-opacity:1" />
    </g>
    <g
       id="g2414"
       transform="matrix(0.1584197,0,0,0.1734758,259.66696,229.17423)">
      <path
         inkscape:export-ydpi="72"
         inkscape:export-xdpi="72"
         transform="matrix(3.4070521,0,0,3.1555948,-1214.4676,-637.60649)"
         d="M 500,360 L 463.58775,354.91523 L 451.06495,389.48236 L 437.26236,355.40605 L 401.06495,361.84454 L 423.67461,332.85299 L 400,304.72437 L 436.41225,309.80913 L 448.93505,275.24201 L 462.73764,309.31832 L 498.93505,302.87982 L 476.32539,331.87137 L 500,360 z"
         inkscape:randomized="0"
         inkscape:rounded="0"
         inkscape:flatsided="false"
         sodipodi:arg2="1.0285557"
         sodipodi:arg1="0.50495695"
         sodipodi:r2="26.329966"
         sodipodi:r1="57.130104"
         sodipodi:cy="332.36218"
         sodipodi:cx="450"
         sodipodi:sides="6"
         id="path2416"
         style="opacity:0.9;fill:#000000;stroke:#000000;stroke-width:0;stroke-miterlimit:4;stroke-dasharray:none;stroke-opacity:1"
         sodipodi:type="star" />
    </g>
    <path
       sodipodi:type="star"
       style="opacity:0.9;fill:#cccccc;stroke:#000000;stroke-width:0;stroke-miterlimit:4;stroke-dasharray:none;stroke-opacity:1"
       id="path2418"
       sodipodi:sides="6"
       sodipodi:cx="450"
       sodipodi:cy="332.36218"
       sodipodi:r1="57.130104"
       sodipodi:r2="26.329966"
       sodipodi:arg1="0.50495695"
       sodipodi:arg2="1.0285557"
       inkscape:flatsided="false"
       inkscape:rounded="0"
       inkscape:randomized="0"
       d="M 500,360 L 463.58775,354.91523 L 451.06495,389.48236 L 437.26236,355.40605 L 401.06495,361.84454 L 423.67461,332.85299 L 400,304.72437 L 436.41225,309.80913 L 448.93505,275.24201 L 462.73764,309.31832 L 498.93505,302.87982 L 476.32539,331.87137 L 500,360 z"
       transform="matrix(0.2613918,0,0,0.2651087,192.614,212.07156)"
       inkscape:export-xdpi="72"
       inkscape:export-ydpi="72" />
    <g
       id="g2420"
       transform="matrix(0.9999973,2.3238177e-3,-2.3238177e-3,0.9999973,-73.641163,-31.252655)">
      <rect
         y="362.36218"
         x="365"
         height="205"
         width="40"
         id="rect2422"
         style="opacity:0.9;fill:#000000;stroke:#000000;stroke-width:0;stroke-miterlimit:4;stroke-dasharray:none;stroke-opacity:1" />
      <rect
         y="372.36218"
         x="375"
         height="185"
         width="20"
         id="rect2424"
         style="opacity:0.9;fill:#cccccc;stroke:#000000;stroke-width:0;stroke-miterlimit:4;stroke-dasharray:none;stroke-opacity:1" />
    </g>
  </g>
</svg>
