<?xml version="1.0" encoding="UTF-8" standalone="no"?>
<!-- Created with Inkscape (http://www.inkscape.org/) -->

<svg
   xmlns:dc="http://purl.org/dc/elements/1.1/"
   xmlns:cc="http://creativecommons.org/ns#"
   xmlns:rdf="http://www.w3.org/1999/02/22-rdf-syntax-ns#"
   xmlns:svg="http://www.w3.org/2000/svg"
   xmlns="http://www.w3.org/2000/svg"
   xmlns:sodipodi="http://sodipodi.sourceforge.net/DTD/sodipodi-0.dtd"
   xmlns:inkscape="http://www.inkscape.org/namespaces/inkscape"
   width="744.09448819"
   height="1052.3622047"
   id="svg2"
   version="1.1"
   inkscape:version="0.48.0 r9654"
   sodipodi:docname="jochititle.svg"
   inkscape:export-filename="/home/lewisc/development/anwmisc/graphics/2D/jochititle.png"
   inkscape:export-xdpi="300"
   inkscape:export-ydpi="300">
  <defs
     id="defs4" />
  <sodipodi:namedview
     id="base"
     pagecolor="#ffffff"
     bordercolor="#666666"
     borderopacity="1.0"
     inkscape:pageopacity="0.0"
     inkscape:pageshadow="2"
     inkscape:zoom="1.979899"
     inkscape:cx="636.42154"
     inkscape:cy="520.81129"
     inkscape:document-units="px"
     inkscape:current-layer="layer1"
     showgrid="false"
     inkscape:window-width="974"
     inkscape:window-height="767"
     inkscape:window-x="322"
     inkscape:window-y="79"
     inkscape:window-maximized="0" />
  <metadata
     id="metadata7">
    <rdf:RDF>
      <cc:Work
         rdf:about="">
        <dc:format>image/svg+xml</dc:format>
        <dc:type
           rdf:resource="http://purl.org/dc/dcmitype/StillImage" />
        <dc:title />
      </cc:Work>
    </rdf:RDF>
  </metadata>
  <g
     inkscape:label="Layer 1"
     inkscape:groupmode="layer"
     id="layer1">
    <text
       xml:space="preserve"
       style="font-size:150.54908752000000050px;font-style:normal;font-variant:normal;font-weight:bold;font-stretch:normal;line-height:125%;letter-spacing:0px;word-spacing:0px;fill:#666666;fill-opacity:1;stroke:none;font-family:Arial;-inkscape-font-specification:Arial Bold"
       x="76.368095"
       y="639.98193"
       id="text2985"
       sodipodi:linespacing="125%"
       transform="scale(1.0648843,0.93906916)"><tspan
         sodipodi:role="line"
         id="tspan2987"
         x="76.368095"
         y="639.98193">J o c h i</tspan></text>
    <rect
       id="rect2989"
       width="46.467018"
       height="6.0609155"
       x="-247.41945"
       y="507.67001"
       transform="matrix(0.76539175,-0.64356466,0.64356466,0.76539175,0,0)"
       style="fill:#666666" />
    <rect
       id="rect2989-0"
       width="46.467018"
       height="6.0609155"
       x="452.44681"
       y="279.70697"
       transform="matrix(0.7023533,0.71182852,-0.71182852,0.7023533,0,0)"
       style="fill:#666666" />
    <path
       sodipodi:type="arc"
       style="fill:#000000"
       id="path3041"
       sodipodi:cx="25.75889"
       sodipodi:cy="484.4039"
       sodipodi:rx="10.606602"
       sodipodi:ry="13.889598"
       d="m 36.365492,484.4039 a 10.606602,13.889598 0 1 1 -21.213204,0 10.606602,13.889598 0 1 1 21.213204,0 z"
       transform="matrix(0.35714286,0,0,0.27272729,132.8531,385.5025)" />
    <path
       sodipodi:type="arc"
       style="fill:#000000"
       id="path3041-2"
       sodipodi:cx="25.75889"
       sodipodi:cy="484.4039"
       sodipodi:rx="10.606602"
       sodipodi:ry="13.889598"
       d="m 36.365492,484.4039 a 10.606602,13.889598 0 1 1 -21.213204,0 10.606602,13.889598 0 1 1 21.213204,0 z"
       transform="matrix(0.35714286,0,0,0.27272729,141.31312,385.50252)" />
    <path
       sodipodi:type="arc"
       style="fill:#000000"
       id="path3041-7"
       sodipodi:cx="25.75889"
       sodipodi:cy="484.4039"
       sodipodi:rx="10.606602"
       sodipodi:ry="13.889598"
       d="m 36.365492,484.4039 a 10.606602,13.889598 0 1 1 -21.213204,0 10.606602,13.889598 0 1 1 21.213204,0 z"
       transform="matrix(0.35714286,0,0,0.27272729,250.14181,402.75201)" />
    <path
       sodipodi:type="arc"
       style="fill:#000000"
       id="path3041-2-0"
       sodipodi:cx="25.75889"
       sodipodi:cy="484.4039"
       sodipodi:rx="10.606602"
       sodipodi:ry="13.889598"
       d="m 36.365492,484.4039 a 10.606602,13.889598 0 1 1 -21.213204,0 10.606602,13.889598 0 1 1 21.213204,0 z"
       transform="matrix(0.35714286,0,0,0.27272729,258.60183,402.75203)" />
    <path
       sodipodi:type="arc"
       style="fill:#000000"
       id="path3041-4"
       sodipodi:cx="25.75889"
       sodipodi:cy="484.4039"
       sodipodi:rx="10.606602"
       sodipodi:ry="13.889598"
       d="m 36.365492,484.4039 a 10.606602,13.889598 0 1 1 -21.213204,0 10.606602,13.889598 0 1 1 21.213204,0 z"
       transform="matrix(0.35714286,0,0,0.27272729,390.14182,402.39487)" />
    <path
       sodipodi:type="arc"
       style="fill:#000000"
       id="path3041-2-5"
       sodipodi:cx="25.75889"
       sodipodi:cy="484.4039"
       sodipodi:rx="10.606602"
       sodipodi:ry="13.889598"
       d="m 36.365492,484.4039 a 10.606602,13.889598 0 1 1 -21.213204,0 10.606602,13.889598 0 1 1 21.213204,0 z"
       transform="matrix(0.35714286,0,0,0.27272729,398.60184,402.39489)" />
    <path
       sodipodi:type="arc"
       style="fill:#000000"
       id="path3041-3"
       sodipodi:cx="25.75889"
       sodipodi:cy="484.4039"
       sodipodi:rx="10.606602"
       sodipodi:ry="13.889598"
       d="m 36.365492,484.4039 a 10.606602,13.889598 0 1 1 -21.213204,0 10.606602,13.889598 0 1 1 21.213204,0 z"
       transform="matrix(0.35714286,0,0,0.27272729,500.14181,377.75201)" />
    <path
       sodipodi:type="arc"
       style="fill:#000000"
       id="path3041-2-4"
       sodipodi:cx="25.75889"
       sodipodi:cy="484.4039"
       sodipodi:rx="10.606602"
       sodipodi:ry="13.889598"
       d="m 36.365492,484.4039 a 10.606602,13.889598 0 1 1 -21.213204,0 10.606602,13.889598 0 1 1 21.213204,0 z"
       transform="matrix(0.35714286,0,0,0.27272729,508.60183,377.75203)" />
    <path
       sodipodi:type="arc"
       style="fill:#000000"
       id="path3041-5"
       sodipodi:cx="25.75889"
       sodipodi:cy="484.4039"
       sodipodi:rx="10.606602"
       sodipodi:ry="13.889598"
       d="m 36.365492,484.4039 a 10.606602,13.889598 0 1 1 -21.213204,0 10.606602,13.889598 0 1 1 21.213204,0 z"
       transform="matrix(0.35714286,0,0,0.27272729,642.64181,377.03772)" />
    <path
       sodipodi:type="arc"
       style="fill:#000000"
       id="path3041-2-7"
       sodipodi:cx="25.75889"
       sodipodi:cy="484.4039"
       sodipodi:rx="10.606602"
       sodipodi:ry="13.889598"
       d="m 36.365492,484.4039 a 10.606602,13.889598 0 1 1 -21.213204,0 10.606602,13.889598 0 1 1 21.213204,0 z"
       transform="matrix(0.35714286,0,0,0.27272729,651.10183,377.03774)" />
    <rect
       id="rect2989-4"
       width="46.467018"
       height="6.0609155"
       x="-142.48235"
       y="617.84094"
       transform="matrix(0.76539175,-0.64356466,0.64356466,0.76539175,0,0)"
       style="fill:#666666" />
    <rect
       id="rect2989-0-0"
       width="46.467018"
       height="6.0609155"
       x="527.20972"
       y="227.33255"
       transform="matrix(0.7023533,0.71182852,-0.71182852,0.7023533,0,0)"
       style="fill:#666666" />
    <rect
       id="rect2989-2"
       width="46.467018"
       height="6.0609155"
       x="-25.059223"
       y="691.84338"
       transform="matrix(0.76539175,-0.64356466,0.64356466,0.76539175,0,0)"
       style="fill:#666666" />
    <rect
       id="rect2989-0-4"
       width="46.467018"
       height="6.0609155"
       x="617.85834"
       y="112.07031"
       transform="matrix(0.7023533,0.71182852,-0.71182852,0.7023533,0,0)"
       style="fill:#666666" />
    <rect
       id="rect2989-46"
       width="46.467018"
       height="6.0609155"
       x="38.240723"
       y="740.86835"
       transform="matrix(0.76539175,-0.64356466,0.64356466,0.76539175,0,0)"
       style="fill:#666666" />
    <rect
       id="rect2989-0-1"
       width="46.467018"
       height="6.0609155"
       x="707.60846"
       y="13.481965"
       transform="matrix(0.7023533,0.71182852,-0.71182852,0.7023533,0,0)"
       style="fill:#666666" />
    <rect
       id="rect2989-1"
       width="46.467018"
       height="6.0609155"
       x="139.58134"
       y="842.87677"
       transform="matrix(0.76539175,-0.64356466,0.64356466,0.76539175,0,0)"
       style="fill:#666666" />
    <rect
       id="rect2989-0-3"
       width="46.467018"
       height="6.0609155"
       x="817.34753"
       y="-79.431793"
       transform="matrix(0.7023533,0.71182852,-0.71182852,0.7023533,0,0)"
       style="fill:#666666" />
  </g>
</svg>
